<?xml version="1.0" encoding="utf-8"?>
<!-- Generator: Adobe Illustrator 21.0.2, SVG Export Plug-In . SVG Version: 6.00 Build 0)  -->
<svg version="1.1" id="Layer_1" xmlns="http://www.w3.org/2000/svg" xmlns:xlink="http://www.w3.org/1999/xlink" x="0px" y="0px"
	 viewBox="0 0 1048.5 242.4" style="enable-background:new 0 0 1048.5 242.4;" xml:space="preserve">
<style type="text/css">
	.st0{fill:#FFFFFF;}
	.st1{fill:#F15D26;}
	.st2{fill:#3796D3;}
	.st3{fill:#1FB899;}
	.st4{fill:#EFCD17;}
</style>
<g>
	<path class="st0" d="M94.5,105.8c0,8.3-1.3,15.9-4,22.4c-2.7,6.4-6.6,11.6-11.7,15.2c-5.1,3.6-11.3,5.6-18.5,5.7
		c-4.7,0-9.7-1-14.9-3.1c-5.1-2-9.7-5.5-13.6-10.4s-6.2-11.4-6.9-19.5V116c-0.1-1-0.2-2.6-0.2-4.6c0-10.3,3-18.8,8.8-25
		c5.9-6.3,13.3-9.9,22-10.9c11.6,0,21.8,3.3,31.3,9.7l2.7,2.1V60.6L89.1,60c-8.1-5.3-19.9-8-35.7-8c-5.8,0.1-11.8,1.5-18,4.2
		c-6.1,2.6-11.9,6.5-17.1,11.6c-5.3,5-9.6,11.6-12.9,19.5c-3.3,7.8-5,17-5,27.2v0.1c0.4,6.1,1.7,12.4,3.9,18.8s5.6,12.7,10.2,18.6
		c4.6,6,10.7,10.9,18.2,14.7s16.4,6,26.5,6l0,0c13.5,0,25-3.3,34.1-10c9-6.6,15.3-14.6,19.4-23.7c4.1-9.1,5.8-17.4,5.8-24.7V2.7h-24
		L94.5,105.8L94.5,105.8z"/>
	<path class="st0" d="M220.3,115c-2.2,11.2-6.1,19.7-11.4,25.2c-5.2,5.4-13.3,8.3-24,8.5c-7.1,0-13.3-1.7-18.4-4.9
		c-5.1-3.3-9.2-7.7-11.9-13c-2.8-5.4-4.3-11.1-4.6-17c0-7.2,1.4-13.8,4.2-19.7c2.7-5.8,6.7-10.5,11.8-13.9s11.1-5.1,18-5.1
		c7,0,12.2,0.9,15.3,2.6c2.6,1.4,5.1,3.2,7.5,5.4l-55.2,30.5l10.8,20.1l79.2-44l-0.9-1.7c-6.4-12.3-14.3-21.6-23.2-27.6
		c-9-6-20.3-9-33.4-9c-6.7,0-13.7,1.3-20.6,3.8c-7,2.5-13.5,6.4-19.3,11.6c-5.9,5.2-10.7,11.9-14.2,19.9s-5.3,17.3-5.3,27.7
		c0,10.3,2.7,20.1,8.2,29c5.4,8.9,12.7,16,21.8,21.3s18.8,7.8,29,7.8l0,0l0,0c9.7,0,18.5-1.9,26.2-5.3c7.6-3.4,14.2-8,19.4-13.6
		s9.1-11.5,11.7-17.7c2.6-6.2,4-12.2,4.1-17.8v-1.8l-24.2-3.4L220.3,115z"/>
	<path class="st0" d="M305,100.8c-4-0.9-7.8-1.9-11.5-2.8c-3.6-0.9-7.1-1.9-10.3-3.2c-3.1-1.2-5.7-2.6-7.7-4.3
		c-1.7-1.5-2.7-3.1-2.9-5c0-2.5,0.9-4.3,2.6-5.7c1.9-1.5,4.6-2.3,8.2-2.3h54v-24h-50c-10.7,0-20.2,2.5-28,7.2
		c-8.2,4.8-12.3,13.4-12.3,25.3c0.2,8.9,3.2,15.9,8.7,21c5.3,4.8,13.6,9.2,24.8,13c0.5,0.2,4.5,1.3,12,3.5c7.4,2.2,12.7,4,15.9,5.3
		c3,1.3,5.5,2.8,7.4,4.6c1.7,1.6,2.5,3.4,2.5,5.6c-0.2,3-1.1,4.9-3,5.9c-2.2,1.1-4.9,1.8-8,2.1c-0.7-0.3-1.4-0.5-2-0.5h-58.9v23H305
		c24.1,0,37-10.3,38.5-30.9v-0.1c0-9.3-3.1-17.1-9.3-23.2C328.1,109.5,318.4,104.6,305,100.8z"/>
	<rect x="358.5" y="53.7" class="st0" width="24" height="116"/>
	<path class="st0" d="M371.4,16.2c-3.8,0-7.1,1.3-9.8,4c-2.8,2.6-4.3,5.9-4.5,9.8v0.1c0,4.4,1.5,8.1,4.5,10.8
		c2.9,2.7,6.4,4.1,10.4,4.1c3.8,0,7-1.3,9.6-3.9c2.6-2.6,4-6.1,4-10.5c0-4.1-1.4-7.6-4.3-10.3C378.5,17.5,375.2,16.2,371.4,16.2z"/>
	<path class="st0" d="M514.5,84.4c-3-6.5-7.2-12.3-12.3-17.3c-5.2-4.9-11.2-8.8-18-11.4c-6.7-2.7-14.1-4.1-21.9-4.2
		c-6.5,0-13.3,1.1-20.1,3.3c-6.8,2.2-13.3,5.7-19.4,10.6S411.7,76.8,408,84.7c-3.8,7.9-5.7,17.4-5.7,28.2c0,10.4,2.5,20.2,7.4,29.1
		c4.9,8.9,11.9,16.2,20.7,21.6c8.8,5.4,18.7,8.4,29.5,8.8c9.4,0,19.2-2.5,29.6-7.4l0.9-0.5v-26.3l-2.8,1.8c-10,5.9-18.7,8.9-26,8.9
		c-7,0-13.2-1.6-18.3-4.7c-5.1-3.1-9.1-7.3-11.9-12.3s-4.3-10.2-4.6-15.4c0-1.4-0.2-2.7-0.5-3.8c0.2-8.7,2-15.9,5.3-21.5
		c3.4-5.6,7.8-9.7,13.1-12.1c5.4-2.5,11.5-3.8,18-3.8c5.6,0,10.9,1.5,15.7,4.5c4.9,3,8.6,7.5,11.6,13.3s4.5,12.7,4.5,20.4V168
		c0,6.2-1.2,11.7-4.3,16.4c-3,4.7-7.2,8.5-12.6,11.1c-5.5,2.6-11.6,4-18.5,4c-5.1,0-10-0.4-14.5-1.3c-4.6-0.8-10.4-2.3-17.4-4.3
		l-1.9-0.6l-6.2,22.5l1.8,0.4c12.7,4.4,25.8,6.5,39,6.5l0,0l0,0c12.6,0,23.1-2.4,31.3-7.3c8.2-4.9,14.4-10.7,18.4-17.6
		c4-6.8,6.6-13.3,7.9-19.4c1.3-6,1.9-11.1,1.9-15v-57.5l0.1-0.1C519.2,98.1,517.5,90.9,514.5,84.4z"/>
	<path class="st0" d="M600.2,55.9c-7.7-3.3-14.9-5.2-21.6-5.2l0,0c-9.1,0-17.7,2.8-25.4,7.1s-14.3,10.3-18.7,17.6s-7,15.5-7,24.1
		v70.1h25V100c0-7,2.8-12.8,7.8-17.9c4.9-5,11-7.5,18.1-7.5c7.5,0.2,13.3,2.9,18.1,8.3c4.8,5.3,7,11.7,7,18.9v67.8h25v-68.2
		c0-11.6-2.8-21.4-8.4-29C614.6,64.9,608,59.3,600.2,55.9z"/>
	<path class="st0" d="M851,58.7c-9.2-4.6-19-7-29-7.2c-9.7,0-19.3,2.6-28.5,7.6c-9.2,5.1-16.8,12.2-22.5,21.1s-8.7,18.9-8.9,29.8
		l-0.5,0.5v1c0.2,8.2,1.8,16,4.8,23.2s7.4,13.8,13.1,19.5c5.7,5.7,12.6,9.9,20.5,13.1c7.9,3.2,16.7,4.5,26.3,4.5l0,0l0,0
		c11.7,0,22-3.5,30.6-9.8s15.1-14,19.5-23.2c4.3-9.2,6.5-18.5,6.5-27.7c0-12.3-3-23-9-31.9C868,70,860.2,63.2,851,58.7z
		 M857.1,109.1c0,9.5-1.5,17.2-4.5,23.2c-2.9,5.8-6.9,10-11.8,12.6c-5.1,2.6-10.9,3.9-17.5,3.9c-12.6,0-21.8-3.8-27.3-11.4
		c-5.7-7.7-8.6-16.9-8.6-27.3c0.2-5.6,1.6-11.2,4.1-16.5c2.5-5.2,6.4-9.6,11.5-13.1s11.7-5.3,19.4-5.4c9.8,0,18,3.1,24.4,9.3
		C853.3,90.6,856.7,98.9,857.1,109.1z"/>
	<rect x="893.5" y="1.7" class="st0" width="25" height="168"/>
	<path class="st0" d="M1023.5,2.7v103.1c0,8.3-1,15.9-3.7,22.4c-2.7,6.4-6.4,11.6-11.5,15.2c-5.1,3.6-11.2,5.6-18.4,5.7
		c-4.7,0-9.6-1-14.9-3.1c-5.1-2-9.7-5.5-13.6-10.4c-3.9-4.9-6.2-11.4-6.9-19.5V116c-0.1-1-0.2-2.6-0.2-4.6c0-10.3,3-18.8,8.8-25
		s13.3-9.9,22-10.9c11.6,0,21.9,3.3,31.4,9.7l2.8,2.1V60.6L1019,60c-8.1-5.3-20-8-35.8-8c-5.8,0.1-11.8,1.5-18,4.2
		c-6.2,2.6-11.9,6.6-17.1,11.6c-5.3,5.1-9.6,11.7-12.9,19.5c-3.3,7.8-5,17-5,27.2v0.1c0.4,6.1,1.7,12.4,3.9,18.8s5.6,12.7,10.2,18.6
		c4.6,6,10.7,10.9,18.2,14.7s16.4,6,26.5,6l0,0c13.5,0,25-3.3,34.1-10c9-6.6,15.4-14.6,19.5-23.7c4.1-9.1,5.9-17.4,5.9-24.7V2.7
		H1023.5z"/>
</g>
<g>
	<g>
		<polygon class="st1" points="661.5,83 661.5,33.5 636.5,-0.7 636.5,48.8 		"/>
	</g>
	<path class="st2" d="M756.5,112.6L756.5,112.6c0-10.3-1.7-19.5-5-27.3s-7.7-14.4-12.9-19.5s-11-9-17.2-11.6s-12.2-4-18.1-4.2
		c-15.8,0-28.3,2.7-36.4,8l-1.4,0.6v26.8l3.6-2.1c9.5-6.4,20.4-9.7,32-9.7c8.7,0.9,16.2,4.6,22.1,10.9c5.9,6.3,8.9,14.7,8.9,25
		c0,2.1,0,3.6-0.2,4.6l0,0c0,0.2,0,0.5-0.1,0.5h24.4C756.4,113.7,756.4,113.3,756.5,112.6z"/>
	<path class="st3" d="M696.4,147.2c-7.2-0.1-13.3-2.1-18.4-5.7c-5.1-3.7-9.2-8.8-11.8-15.2c-1.5-3.5-2.8-7.4-3.5-11.5
		c-0.6-3.5-1.1-7.1-1.1-11V92l-25-34.2v54.5c0,0.8,0.3,1.7,0.3,2.5c0.5,6.7,2.9,14.2,6.5,22.2c4.1,9.1,10.8,17.1,19.8,23.7
		c8.9,6.6,20.4,9.9,33.4,10v-23.6C696.5,147.2,696.5,147.2,696.4,147.2z"/>
	<path class="st4" d="M697.7,170.7L697.7,170.7c10.2-1,19.1-2.2,26.6-6s13.6-8.7,18.2-14.7c4.5-5.9,8-12.2,10.1-18.6
		c1.9-5.6,3.2-11.7,3.7-16.7h-24.4c-0.7,8-3,14.3-6.8,19c-3.9,4.9-8.7,8.4-13.8,10.4s-9.7,3-14.7,3.1v23.6
		C697.5,170.8,697.5,170.7,697.7,170.7L697.7,170.7L697.7,170.7z"/>
</g>
</svg>
